<svg xmlns="http://www.w3.org/2000/svg" viewBox="0 0 129.98 52.07"><defs><style>.cls-1{fill:none;}</style></defs><title>Asset 1</title><g id="Layer_2" data-name="Layer 2"><g id="Layer_1-2" data-name="Layer 1"><path class="cls-1" d="M87,42.89A3.16,3.16,0,0,0,85.87,42a4.14,4.14,0,0,0-3,0,3.16,3.16,0,0,0-1.17.86,3.93,3.93,0,0,0-.76,1.43,7.69,7.69,0,0,0,0,4,4.08,4.08,0,0,0,.76,1.45,3.09,3.09,0,0,0,1.17.87,4.14,4.14,0,0,0,3,0A3.09,3.09,0,0,0,87,49.79a4.17,4.17,0,0,0,.77-1.45,7.5,7.5,0,0,0,0-4A4,4,0,0,0,87,42.89Z"/><path class="cls-1" d="M108.23,41.75a3.87,3.87,0,0,0-1.33.22,3.12,3.12,0,0,0-1.1.69,3.87,3.87,0,0,0-.81,1.17,5.9,5.9,0,0,0-.47,1.64h7.43a4.64,4.64,0,0,0-1.27-2.79A3.43,3.43,0,0,0,108.23,41.75Z"/><path class="cls-1" d="M95.9,41.75a3.17,3.17,0,0,0-1.37.29,2.77,2.77,0,0,0-1,.87,4.3,4.3,0,0,0-.67,1.46,7.88,7.88,0,0,0-.24,2.06,5.59,5.59,0,0,0,.86,3.37,2.81,2.81,0,0,0,2.39,1.15,3.3,3.3,0,0,0,1.85-.55,6.42,6.42,0,0,0,1.63-1.65V43.32a5.54,5.54,0,0,0-1.58-1.18A4.16,4.16,0,0,0,95.9,41.75Z"/><polygon points="2 2.87 18.67 27.83 21.29 27.83 21.29 9.57 19.29 9.57 19.29 25.41 2.75 0.5 0 0.5 0 27.83 2 27.83 2 2.87"/><rect x="19.29" y="0.5" width="2" height="7.04"/><path d="M50.13,11.43a17.54,17.54,0,0,0-.31-1.86H47.7A17.26,17.26,0,0,1,48,11.43Z"/><path d="M48.14,14a20.77,20.77,0,0,1-.55,5,8.78,8.78,0,0,1-1.9,3.73A8.41,8.41,0,0,1,42.09,25a17.23,17.23,0,0,1-5.68.8H30.2V9.57h-2V27.83h8.26q13.8,0,13.8-13.88c0-.17,0-.33,0-.49H48.13C48.13,13.62,48.14,13.78,48.14,14Z"/><path d="M30.2,2.5h6.21a17.85,17.85,0,0,1,5.7.77,8.46,8.46,0,0,1,3.61,2.26,7.9,7.9,0,0,1,1.32,2h2.17a10.19,10.19,0,0,0-2.39-3.68Q43.38.52,36.46.52H28.2v7h2Z"/><path d="M75.1,16.3a19.18,19.18,0,0,1-.55,5.07,7.17,7.17,0,0,1-1.61,3.06,5.39,5.39,0,0,1-2.65,1.51,14.9,14.9,0,0,1-3.63.4,14.47,14.47,0,0,1-3.58-.4,5.59,5.59,0,0,1-2.65-1.5,7,7,0,0,1-1.65-3.06,18.91,18.91,0,0,1-.56-5.08V13.46h-2v2.92q0,1.35.09,2.77a14,14,0,0,0,.44,2.75,10.2,10.2,0,0,0,1,2.5,6.83,6.83,0,0,0,1.82,2,8.84,8.84,0,0,0,2.88,1.39,14.92,14.92,0,0,0,4.18.51,13.86,13.86,0,0,0,5.12-.81A7.36,7.36,0,0,0,75,25.17a9.3,9.3,0,0,0,1.65-3.76,24.28,24.28,0,0,0,.47-5V13.46h-2Z"/><rect x="56.23" y="0.5" width="2" height="7.04"/><rect x="75.1" y="0.5" width="2" height="7.04"/><rect x="75.1" y="9.57" width="2" height="1.86"/><path d="M99,11.33l-.16.1h2.59a5,5,0,0,0,.37-.55,5.91,5.91,0,0,0,.55-1.32h-2A3.64,3.64,0,0,1,99,11.33Z"/><path d="M84.26,27.83h9.93q4.87,0,7.37-2a6.81,6.81,0,0,0,2.51-5.69,12,12,0,0,0-.21-2.21,5.53,5.53,0,0,0-.85-2.08,5.24,5.24,0,0,0-1.8-1.61,7.36,7.36,0,0,0-2.81-.81H84.26Zm2-13.33h7.36a19.61,19.61,0,0,1,4,.34,6.8,6.8,0,0,1,2.55,1,3.72,3.72,0,0,1,1.36,1.76,7.31,7.31,0,0,1,.4,2.55q0,5.67-7.74,5.67H86.25Z"/><rect x="84.26" y="9.57" width="2" height="1.86"/><path d="M86.25,2.5l7.71,0q3.52,0,5.12,1.21a4.35,4.35,0,0,1,1.6,3.71c0,.05,0,.1,0,.15h1.94c0-.17,0-.33,0-.5a5.7,5.7,0,0,0-2.18-5A10.76,10.76,0,0,0,94.14.5H84.26v7h2Z"/><path d="M111.86,7a4.3,4.3,0,0,1,1.88-3.69A9.51,9.51,0,0,1,119.29,2a11.4,11.4,0,0,1,3.11.39,7.84,7.84,0,0,1,2.35,1.07,6,6,0,0,1,1.61,1.63,6.64,6.64,0,0,1,.9,2h1.92A7.44,7.44,0,0,0,126,1.9,9.85,9.85,0,0,0,123,.49,14.3,14.3,0,0,0,119.12,0a13.2,13.2,0,0,0-3.83.52,9.2,9.2,0,0,0-3,1.47,6.65,6.65,0,0,0-1.91,2.27,6.34,6.34,0,0,0-.67,2.92c0,.12,0,.23,0,.35h2.13C111.87,7.38,111.86,7.21,111.86,7Z"/><path d="M110.24,9.77a5.42,5.42,0,0,0,1.55,2,10.12,10.12,0,0,0,2.66,1.51,24.72,24.72,0,0,0,3.86,1.15q2.72.57,4.55,1.12a12.41,12.41,0,0,1,3,1.25,4.22,4.22,0,0,1,1.6,1.63,5.08,5.08,0,0,1,.47,2.31,4.91,4.91,0,0,1-.55,2.33,5.09,5.09,0,0,1-1.58,1.77,7.63,7.63,0,0,1-2.5,1.12,12.82,12.82,0,0,1-3.28.39,17.32,17.32,0,0,1-3.29-.3,8.45,8.45,0,0,1-2.76-1,6.37,6.37,0,0,1-2-1.95A7.62,7.62,0,0,1,110.76,20h-2a9.15,9.15,0,0,0,.87,3.46,7.33,7.33,0,0,0,2.16,2.62,10.19,10.19,0,0,0,3.48,1.67,17.87,17.87,0,0,0,4.84.59,12.69,12.69,0,0,0,3.93-.59,9.61,9.61,0,0,0,3.12-1.65,7.65,7.65,0,0,0,2-2.52,7,7,0,0,0,.74-3.21,6.53,6.53,0,0,0-.49-2.63,6.07,6.07,0,0,0-1.3-1.91,7.48,7.48,0,0,0-1.91-1.35,15.24,15.24,0,0,0-2.31-.92q-1.21-.37-2.48-.65L119,12.38a26.47,26.47,0,0,1-3.42-.91,8.13,8.13,0,0,1-2.21-1.12,4.15,4.15,0,0,1-.79-.78h-2.45C110.18,9.63,110.21,9.71,110.24,9.77Z"/><path d="M71,42.9A3.11,3.11,0,0,1,72.18,42a3.89,3.89,0,0,1,1.52-.29,4.36,4.36,0,0,1,1.1.13,2.9,2.9,0,0,1,.91.4,2.2,2.2,0,0,1,.64.66,2.26,2.26,0,0,1,.32.9h1.1a4.12,4.12,0,0,0-.5-1.38,3.55,3.55,0,0,0-.88-1,3.78,3.78,0,0,0-1.21-.62,5.27,5.27,0,0,0-3.45.18,4.26,4.26,0,0,0-1.53,1.12,5,5,0,0,0-1,1.8,8.66,8.66,0,0,0,0,4.86,5.12,5.12,0,0,0,1,1.8,4.18,4.18,0,0,0,1.53,1.11,5,5,0,0,0,2,.38,5,5,0,0,0,1.45-.2,3.67,3.67,0,0,0,1.21-.61,3.59,3.59,0,0,0,.88-1,4.26,4.26,0,0,0,.51-1.38h-1.1a2.05,2.05,0,0,1-.34.91,2.37,2.37,0,0,1-.67.65,3.1,3.1,0,0,1-.91.39,4.11,4.11,0,0,1-1.05.13,3.89,3.89,0,0,1-1.52-.29A3.11,3.11,0,0,1,71,49.79a4,4,0,0,1-.76-1.44,7.69,7.69,0,0,1,0-4A4,4,0,0,1,71,42.9Z"/><path d="M87.9,42.13A4.14,4.14,0,0,0,86.37,41a5.38,5.38,0,0,0-4,0,4.18,4.18,0,0,0-1.53,1.12,5.11,5.11,0,0,0-1,1.79,8.64,8.64,0,0,0,0,4.85,5.26,5.26,0,0,0,1,1.8,4.09,4.09,0,0,0,1.52,1.12,5.37,5.37,0,0,0,4,0,4.14,4.14,0,0,0,1.53-1.12,5.17,5.17,0,0,0,1-1.8,8.71,8.71,0,0,0,0-4.82A5.09,5.09,0,0,0,87.9,42.13Zm-.09,6.2A4.17,4.17,0,0,1,87,49.79a3.09,3.09,0,0,1-1.17.87,4.14,4.14,0,0,1-3,0,3.09,3.09,0,0,1-1.17-.87,4.08,4.08,0,0,1-.76-1.45,7.69,7.69,0,0,1,0-4,3.93,3.93,0,0,1,.76-1.43A3.16,3.16,0,0,1,82.84,42a4.14,4.14,0,0,1,3,0,3.16,3.16,0,0,1,1.17.86,4,4,0,0,1,.77,1.43,7.5,7.5,0,0,1,0,4Z"/><path d="M99.3,42a5.79,5.79,0,0,0-1-.72,4.55,4.55,0,0,0-.91-.4,4.43,4.43,0,0,0-.84-.18,7.77,7.77,0,0,0-.8,0,3.73,3.73,0,0,0-1.71.4,4,4,0,0,0-1.38,1.15A5.66,5.66,0,0,0,91.78,44a8.24,8.24,0,0,0-.33,2.42,9.09,9.09,0,0,0,.27,2.32,5.3,5.3,0,0,0,.81,1.78,3.73,3.73,0,0,0,1.32,1.14,3.88,3.88,0,0,0,1.81.41,6.32,6.32,0,0,0,.82-.06,3.49,3.49,0,0,0,.88-.25,4.68,4.68,0,0,0,.94-.54,5.88,5.88,0,0,0,1-.94v1.5h1.12V36.41H99.3Zm0,6.78a6.42,6.42,0,0,1-1.63,1.65,3.3,3.3,0,0,1-1.85.55,2.81,2.81,0,0,1-2.39-1.15,5.59,5.59,0,0,1-.86-3.37,7.88,7.88,0,0,1,.24-2.06,4.3,4.3,0,0,1,.67-1.46,2.77,2.77,0,0,1,1-.87,3.17,3.17,0,0,1,1.37-.29,4.16,4.16,0,0,1,1.82.39,5.54,5.54,0,0,1,1.58,1.18Z"/><path d="M111.77,42.15A4.21,4.21,0,0,0,110.24,41a5,5,0,0,0-2-.39,4.79,4.79,0,0,0-2,.39,4.38,4.38,0,0,0-1.53,1.13,5.14,5.14,0,0,0-1,1.8,8.25,8.25,0,0,0,0,4.81,5.12,5.12,0,0,0,1,1.8,4.41,4.41,0,0,0,1.59,1.12,5.32,5.32,0,0,0,2.06.39,5.6,5.6,0,0,0,1.56-.21,4.21,4.21,0,0,0,1.31-.62,3.77,3.77,0,0,0,1.52-2.38h-1.11a1.74,1.74,0,0,1-.36.9,2.68,2.68,0,0,1-.77.66,3.69,3.69,0,0,1-1,.4,4.85,4.85,0,0,1-1.12.13,4,4,0,0,1-1.48-.27,3.34,3.34,0,0,1-1.2-.81,4.12,4.12,0,0,1-.84-1.35,6.57,6.57,0,0,1-.41-1.92h8.56v-.25a7.89,7.89,0,0,0-.34-2.39A5.09,5.09,0,0,0,111.77,42.15Zm-7.26,3.32a5.9,5.9,0,0,1,.47-1.64,3.87,3.87,0,0,1,.81-1.17,3.12,3.12,0,0,1,1.1-.69,3.87,3.87,0,0,1,1.33-.22,3.43,3.43,0,0,1,2.44.93,4.64,4.64,0,0,1,1.27,2.79Z"/><path d="M122.79,46.73a4.29,4.29,0,0,0-1.15-.62,15.87,15.87,0,0,0-1.64-.5,15.1,15.1,0,0,1-1.88-.57,4.37,4.37,0,0,1-1-.54,1.19,1.19,0,0,1-.43-.52,1.55,1.55,0,0,1-.08-.49,1.37,1.37,0,0,1,.21-.75,1.68,1.68,0,0,1,.58-.55,3,3,0,0,1,.89-.33,5.38,5.38,0,0,1,1.14-.11,4.05,4.05,0,0,1,2,.39,1.55,1.55,0,0,1,.78,1.2h1.14a2.54,2.54,0,0,0-1.12-2.06,5.43,5.43,0,0,0-2.94-.65,5.77,5.77,0,0,0-1.56.2,3.62,3.62,0,0,0-1.19.56,2.59,2.59,0,0,0-.77.89,2.5,2.5,0,0,0-.27,1.17,2.87,2.87,0,0,0,.24,1.24,2.28,2.28,0,0,0,.71.85,4.26,4.26,0,0,0,1.16.59q.69.24,1.57.46,1,.27,1.71.5a4.88,4.88,0,0,1,1.05.48,1.43,1.43,0,0,1,.53.56,1.72,1.72,0,0,1,.15.74,1.85,1.85,0,0,1-.18.81,1.75,1.75,0,0,1-.55.65,2.93,2.93,0,0,1-.93.44,4.74,4.74,0,0,1-1.31.16,4,4,0,0,1-2.31-.55,2.14,2.14,0,0,1-.91-1.54h-1.14q.37,3.21,4.37,3.21a5.22,5.22,0,0,0,1.7-.26,3.9,3.9,0,0,0,1.28-.71,3.1,3.1,0,0,0,.81-1.07,3.17,3.17,0,0,0,.29-1.34,2.61,2.61,0,0,0-.22-1.12A2.31,2.31,0,0,0,122.79,46.73Z"/><rect x="127.32" y="49.74" width="2.05" height="2.05"/><rect x="0.43" y="34.55" width="129.38" height="0.17"/></g></g></svg>